<svg width="34" height="37" viewBox="0 0 34 37" fill="none" xmlns="http://www.w3.org/2000/svg">
<g filter="url(#filter0_d_0_53)">
<path d="M16.6057 4.74074V3.24074H16.6057L16.6057 4.74074ZM27.3303 22.398H28.8303V22.3979L27.3303 22.398ZM23.5852 26.7808L23.7912 28.2666L23.7912 28.2666L23.5852 26.7808ZM16.6057 27.3823V28.8823H16.6057L16.6057 27.3823ZM9.62622 26.7808L9.4202 28.2666H9.4202L9.62622 26.7808ZM5.8811 22.398L4.3811 22.3979V22.398H5.8811ZM16.6057 4.74074V6.24074C20.3841 6.24074 23.4475 9.30415 23.4475 13.0825H24.9475H26.4475C26.4475 7.64729 22.041 3.24074 16.6057 3.24074V4.74074ZM24.9475 13.0825H23.4475V15.9491H24.9475H26.4475V13.0825H24.9475ZM26.6912 20.071L25.4028 20.839C25.6741 21.2941 25.8303 21.8256 25.8303 22.398L27.3303 22.398L28.8303 22.3979C28.8303 21.27 28.5202 20.2097 27.9797 19.3029L26.6912 20.071ZM27.3303 22.398H25.8303C25.8303 23.881 24.7788 25.1009 23.3792 25.295L23.5852 26.7808L23.7912 28.2666C26.7431 27.8572 28.8303 25.3081 28.8303 22.398H27.3303ZM23.5852 26.7808L23.3792 25.295C21.2304 25.593 18.6159 25.8823 16.6057 25.8823L16.6057 27.3823L16.6057 28.8823C18.8337 28.8823 21.6188 28.5678 23.7912 28.2666L23.5852 26.7808ZM16.6057 27.3823V25.8823C14.5956 25.8823 11.981 25.593 9.83224 25.295L9.62622 26.7808L9.4202 28.2666C11.5927 28.5678 14.3778 28.8823 16.6057 28.8823V27.3823ZM9.62622 26.7808L9.83225 25.295C8.43262 25.1009 7.3811 23.881 7.3811 22.398H5.8811H4.3811C4.3811 25.3081 6.46832 27.8572 9.4202 28.2666L9.62622 26.7808ZM5.8811 22.398L7.3811 22.398C7.38113 21.8256 7.53737 21.2941 7.80863 20.839L6.52018 20.071L5.23172 19.303C4.69121 20.2097 4.38115 21.27 4.3811 22.3979L5.8811 22.398ZM8.26392 15.9491H9.76392V13.0825H8.26392H6.76392V15.9491H8.26392ZM8.26392 13.0825H9.76392C9.76392 9.30418 12.8273 6.24077 16.6057 6.24074L16.6057 4.74074L16.6057 3.24074C11.1705 3.24079 6.76392 7.6473 6.76392 13.0825H8.26392ZM6.52018 20.071L7.80863 20.839C8.14038 20.2825 8.6516 19.5052 9.0237 18.7596C9.41551 17.9746 9.76392 17.0283 9.76392 15.9491H8.26392H6.76392C6.76392 16.3777 6.62648 16.8448 6.33944 17.4199C6.03269 18.0346 5.67203 18.5643 5.23172 19.303L6.52018 20.071ZM24.9475 15.9491H23.4475C23.4475 17.0283 23.7959 17.9746 24.1877 18.7596C24.5598 19.5052 25.071 20.2825 25.4028 20.839L26.6912 20.071L27.9797 19.3029C27.5394 18.5643 27.1787 18.0346 26.872 17.42C26.5849 16.8448 26.4475 16.3777 26.4475 15.9491H24.9475Z" fill="#427D58"/>
<path d="M19.5848 30.5503C18.9444 31.5135 17.8492 32.1484 16.6058 32.1484C15.3623 32.1484 14.2672 31.5135 13.6267 30.5503" stroke="#427D58" stroke-width="3" stroke-linecap="round"/>
</g>
<defs>
<filter id="filter0_d_0_53" x="-2.50034" y="-0.9" width="38.6889" height="38.6889" filterUnits="userSpaceOnUse" color-interpolation-filters="sRGB">
<feFlood flood-opacity="0" result="BackgroundImageFix"/>
<feColorMatrix in="SourceAlpha" type="matrix" values="0 0 0 0 0 0 0 0 0 0 0 0 0 0 0 0 0 0 127 0" result="hardAlpha"/>
<feOffset/>
<feGaussianBlur stdDeviation="1.45"/>
<feComposite in2="hardAlpha" operator="out"/>
<feColorMatrix type="matrix" values="0 0 0 0 0 0 0 0 0 0 0 0 0 0 0 0 0 0 0.15 0"/>
<feBlend mode="normal" in2="BackgroundImageFix" result="effect1_dropShadow_0_53"/>
<feBlend mode="normal" in="SourceGraphic" in2="effect1_dropShadow_0_53" result="shape"/>
</filter>
</defs>
</svg>
