<svg width="146" height="50" viewBox="0 0 146 50" fill="none" xmlns="http://www.w3.org/2000/svg">
<g filter="url(#filter0_d_0_55)">
<rect x="4.62231" y="5" width="137" height="40" rx="20" fill="#427D58"/>
</g>
<path d="M61.7036 17.4444V31.1333H69.7258V33H59.6147V17.4444H61.7036ZM75.8749 33.1111C74.7638 33.1111 73.7638 32.8593 72.8749 32.3556C71.986 31.837 71.2897 31.1259 70.786 30.2222C70.2823 29.3037 70.0304 28.2667 70.0304 27.1111C70.0304 25.9556 70.2823 24.9259 70.786 24.0222C71.2897 23.1037 71.986 22.3926 72.8749 21.8889C73.7638 21.3704 74.7638 21.1111 75.8749 21.1111C76.986 21.1111 77.9786 21.3704 78.8527 21.8889C79.7415 22.3926 80.4378 23.1037 80.9415 24.0222C81.4452 24.9259 81.6971 25.9556 81.6971 27.1111C81.6971 28.2667 81.4452 29.3037 80.9415 30.2222C80.4378 31.1259 79.7415 31.837 78.8527 32.3556C77.9786 32.8593 76.986 33.1111 75.8749 33.1111ZM75.8749 31.3111C76.586 31.3111 77.2304 31.1407 77.8082 30.8C78.386 30.4444 78.8378 29.9481 79.1638 29.3111C79.4897 28.6741 79.6527 27.9407 79.6527 27.1111C79.6527 26.2815 79.4897 25.5481 79.1638 24.9111C78.8378 24.2741 78.386 23.7852 77.8082 23.4444C77.2304 23.0889 76.586 22.9111 75.8749 22.9111C75.1638 22.9111 74.5193 23.0889 73.9415 23.4444C73.3638 23.7852 72.9119 24.2741 72.586 24.9111C72.2601 25.5481 72.0971 26.2815 72.0971 27.1111C72.0971 27.9407 72.2601 28.6741 72.586 29.3111C72.9119 29.9481 73.3638 30.4444 73.9415 30.8C74.5193 31.1407 75.1638 31.3111 75.8749 31.3111ZM94.7574 31.4222C94.7574 35.4222 92.8241 37.4222 88.9574 37.4222C87.8908 37.4222 86.8908 37.2667 85.9574 36.9556C85.0389 36.6444 84.2834 36.2074 83.6908 35.6444L84.5796 34.0889C85.0834 34.5778 85.713 34.9556 86.4685 35.2222C87.2241 35.5037 88.0093 35.6444 88.8241 35.6444C90.1574 35.6444 91.1352 35.3185 91.7574 34.6667C92.3945 34.0296 92.713 33.037 92.713 31.6889V30.2667C92.2834 30.9778 91.7056 31.5333 90.9797 31.9333C90.2685 32.3185 89.4611 32.5111 88.5574 32.5111C87.5204 32.5111 86.5722 32.2741 85.713 31.8C84.8685 31.3111 84.2019 30.637 83.713 29.7778C83.2241 28.9037 82.9796 27.9111 82.9796 26.8C82.9796 25.6889 83.2241 24.7037 83.713 23.8444C84.2019 22.9852 84.8685 22.3185 85.713 21.8444C86.5722 21.3556 87.5204 21.1111 88.5574 21.1111C89.4759 21.1111 90.3056 21.3185 91.0463 21.7333C91.8019 22.1333 92.3945 22.7111 92.8241 23.4667V21.2444H94.7574V31.4222ZM88.8908 30.7111C89.6315 30.7111 90.2908 30.5481 90.8685 30.2222C91.4611 29.8815 91.9204 29.4148 92.2463 28.8222C92.5871 28.2296 92.7574 27.5556 92.7574 26.8C92.7574 26.0444 92.5871 25.3704 92.2463 24.7778C91.9204 24.1852 91.4611 23.7259 90.8685 23.4C90.2908 23.0741 89.6315 22.9111 88.8908 22.9111C88.15 22.9111 87.4908 23.0741 86.913 23.4C86.3352 23.7259 85.8759 24.1852 85.5352 24.7778C85.2093 25.3704 85.0463 26.0444 85.0463 26.8C85.0463 27.5556 85.2093 28.2296 85.5352 28.8222C85.8759 29.4148 86.3352 29.8815 86.913 30.2222C87.4908 30.5481 88.15 30.7111 88.8908 30.7111ZM99.1479 18.9333C98.7479 18.9333 98.4145 18.8074 98.1479 18.5556C97.8812 18.3037 97.7479 17.9852 97.7479 17.6C97.7479 17.2148 97.8812 16.8963 98.1479 16.6444C98.4145 16.3778 98.7479 16.2444 99.1479 16.2444C99.5479 16.2444 99.8738 16.3704 100.126 16.6222C100.392 16.8741 100.526 17.1852 100.526 17.5556C100.526 17.9407 100.392 18.2667 100.126 18.5333C99.8738 18.8 99.5479 18.9333 99.1479 18.9333ZM100.17 21.2444V33H98.1257V21.2444H100.17ZM109.444 21.1111C110.837 21.1111 111.948 21.5407 112.778 22.4C113.607 23.2593 114.022 24.5185 114.022 26.1778V33H112V26.4667C112 25.3111 111.741 24.4444 111.222 23.8667C110.703 23.2741 109.955 22.9778 108.978 22.9778C107.881 22.9778 107.015 23.3259 106.378 24.0222C105.741 24.7185 105.422 25.6815 105.422 26.9111V33H103.4V21.2444H105.333V23.2889C105.733 22.6074 106.289 22.0741 107 21.6889C107.711 21.3037 108.526 21.1111 109.444 21.1111Z" fill="white"/>
<path d="M39.8723 28.6667V30.5C39.8723 32.525 41.5139 34.1667 43.539 34.1667H48.1223C50.1474 34.1667 51.789 32.525 51.789 30.5V19.5C51.789 17.475 50.1474 15.8333 48.1223 15.8333H43.539C41.5139 15.8333 39.8723 17.475 39.8723 19.5V21.3333" stroke="white" stroke-width="1.83333" stroke-linecap="round"/>
<path d="M44.4557 27.75L46.5575 25.6482C46.9155 25.2902 46.9155 24.7098 46.5575 24.3518L44.4557 22.25" stroke="white" stroke-width="1.83333" stroke-linecap="round"/>
<path d="M46.2889 25L35.2889 25" stroke="white" stroke-width="1.83333" stroke-linecap="round"/>
<defs>
<filter id="filter0_d_0_55" x="0.322314" y="0.7" width="145.6" height="48.6" filterUnits="userSpaceOnUse" color-interpolation-filters="sRGB">
<feFlood flood-opacity="0" result="BackgroundImageFix"/>
<feColorMatrix in="SourceAlpha" type="matrix" values="0 0 0 0 0 0 0 0 0 0 0 0 0 0 0 0 0 0 127 0" result="hardAlpha"/>
<feOffset/>
<feGaussianBlur stdDeviation="2.15"/>
<feComposite in2="hardAlpha" operator="out"/>
<feColorMatrix type="matrix" values="0 0 0 0 0 0 0 0 0 0 0 0 0 0 0 0 0 0 0.15 0"/>
<feBlend mode="normal" in2="BackgroundImageFix" result="effect1_dropShadow_0_55"/>
<feBlend mode="normal" in="SourceGraphic" in2="effect1_dropShadow_0_55" result="shape"/>
</filter>
</defs>
</svg>
