<svg width="48" height="48" viewBox="0 0 48 48" fill="none" xmlns="http://www.w3.org/2000/svg">
<g filter="url(#filter0_d_29_62)">
<rect x="2" y="2" width="44" height="44" rx="3.66667" fill="#427D58"/>
<circle cx="23.9294" cy="21.2507" r="0.666667" fill="#90CFA8" stroke="#FAFAFA" stroke-width="0.5"/>
<circle cx="23.9294" cy="26.7507" r="0.666667" fill="#90CFA8" stroke="#FAFAFA" stroke-width="0.5"/>
<circle cx="23.9294" cy="32.2507" r="0.666667" fill="#90CFA8" stroke="#FAFAFA" stroke-width="0.5"/>
<circle cx="23.9294" cy="37.8913" r="0.666667" fill="#90CFA8" stroke="#FAFAFA" stroke-width="0.5"/>
<circle cx="23.9294" cy="15.609" r="0.666667" fill="#90CFA8" stroke="#FAFAFA" stroke-width="0.5"/>
<circle cx="23.9294" cy="10.109" r="0.666667" fill="#90CFA8" stroke="#FAFAFA" stroke-width="0.5"/>
<mask id="path-8-inside-1_29_62" fill="white">
<rect x="8.91016" y="9.33398" width="1.83333" height="1.69231" rx="0.423077"/>
</mask>
<rect x="8.91016" y="9.33398" width="1.83333" height="1.69231" rx="0.423077" fill="#90CFA8" stroke="#FAFAFA" mask="url(#path-8-inside-1_29_62)"/>
<rect x="9.30127" y="15.084" width="1.33333" height="1.19231" fill="#90CFA8" stroke="#FAFAFA" stroke-width="0.5"/>
<mask id="path-10-inside-2_29_62" fill="white">
<rect x="8.91016" y="20.334" width="1.83333" height="1.69231" rx="0.423077"/>
</mask>
<rect x="8.91016" y="20.334" width="1.83333" height="1.69231" rx="0.423077" fill="#90CFA8" stroke="#FAFAFA" mask="url(#path-10-inside-2_29_62)"/>
<path d="M9.75586 31.7246H9.82715C10.1952 31.7248 10.4932 32.0235 10.4932 32.3916V32.917H9.75586C9.42682 32.9167 9.16016 32.6494 9.16016 32.3203C9.1604 31.9914 9.42697 31.7249 9.75586 31.7246Z" fill="#90CFA8" stroke="#FAFAFA" stroke-width="0.5"/>
<path d="M38.103 31.7246H38.0317C37.6637 31.7248 37.3657 32.0235 37.3657 32.3916V32.917H38.103C38.4321 32.9167 38.6987 32.6494 38.6987 32.3203C38.6985 31.9914 38.4319 31.7249 38.103 31.7246Z" fill="#90CFA8" stroke="#FAFAFA" stroke-width="0.5"/>
<path d="M9.75586 38.416H9.82715C10.1952 38.4158 10.4932 38.1171 10.4932 37.749V37.2236H9.75586C9.42682 37.2239 9.16016 37.4912 9.16016 37.8203C9.1604 38.1492 9.42697 38.4158 9.75586 38.416Z" fill="#90CFA8" stroke="#FAFAFA" stroke-width="0.5"/>
<path d="M38.103 38.416H38.0317C37.6637 38.4158 37.3657 38.1171 37.3657 37.749V37.2236H38.103C38.4321 37.2239 38.6987 37.4912 38.6987 37.8203C38.6985 38.1492 38.4319 38.4158 38.103 38.416Z" fill="#90CFA8" stroke="#FAFAFA" stroke-width="0.5"/>
<rect x="8.87817" y="25.832" width="16.0004" height="1.89384" rx="0.94692" stroke="#FAFAFA" stroke-width="0.5"/>
<rect x="22.9849" y="25.832" width="16.0004" height="1.89384" rx="0.94692" stroke="#FAFAFA" stroke-width="0.5"/>
<rect x="8.87817" y="31.3887" width="16.0004" height="1.89384" rx="0.94692" stroke="#FAFAFA" stroke-width="0.5"/>
<rect x="22.9849" y="31.3887" width="16.0004" height="1.89384" rx="0.94692" stroke="#FAFAFA" stroke-width="0.5"/>
<rect x="10.7722" y="31.3887" width="7.45097" height="1.89384" rx="0.94692" transform="rotate(90 10.7722 31.3887)" stroke="#FAFAFA" stroke-width="0.5"/>
<rect x="24.8787" y="31.3887" width="7.45097" height="1.89384" rx="0.94692" transform="rotate(90 24.8787 31.3887)" stroke="#FAFAFA" stroke-width="0.5"/>
<rect x="24.8787" y="31.3887" width="7.45097" height="1.89384" rx="0.94692" transform="rotate(90 24.8787 31.3887)" stroke="#FAFAFA" stroke-width="0.5"/>
<rect x="38.9851" y="31.3887" width="7.45097" height="1.89384" rx="0.94692" transform="rotate(90 38.9851 31.3887)" stroke="#FAFAFA" stroke-width="0.5"/>
<rect x="8.87817" y="36.9453" width="16.0004" height="1.89384" rx="0.94692" stroke="#FAFAFA" stroke-width="0.5"/>
<rect x="22.9849" y="36.9453" width="16.0004" height="1.89384" rx="0.94692" stroke="#FAFAFA" stroke-width="0.5"/>
<rect x="8.87817" y="9.16016" width="16.0004" height="1.89384" rx="0.94692" stroke="#FAFAFA" stroke-width="0.5"/>
<rect x="22.9849" y="9.16016" width="16.0004" height="1.89384" rx="0.94692" stroke="#FAFAFA" stroke-width="0.5"/>
<rect x="8.87817" y="14.7168" width="16.0004" height="1.89384" rx="0.94692" stroke="#FAFAFA" stroke-width="0.5"/>
<rect x="22.9849" y="14.7168" width="16.0004" height="1.89384" rx="0.94692" stroke="#FAFAFA" stroke-width="0.5"/>
<rect x="8.87817" y="20.2744" width="16.0004" height="1.89384" rx="0.94692" stroke="#FAFAFA" stroke-width="0.5"/>
<rect x="22.9849" y="20.2744" width="16.0004" height="1.89384" rx="0.94692" stroke="#FAFAFA" stroke-width="0.5"/>
<rect x="10.7722" y="9.16016" width="13.0081" height="1.89384" rx="0.94692" transform="rotate(90 10.7722 9.16016)" stroke="#FAFAFA" stroke-width="0.5"/>
<rect x="24.8787" y="9.16016" width="13.0081" height="1.89384" rx="0.94692" transform="rotate(90 24.8787 9.16016)" stroke="#FAFAFA" stroke-width="0.5"/>
</g>
<defs>
<filter id="filter0_d_29_62" x="0.138462" y="0.138462" width="47.7231" height="47.7231" filterUnits="userSpaceOnUse" color-interpolation-filters="sRGB">
<feFlood flood-opacity="0" result="BackgroundImageFix"/>
<feColorMatrix in="SourceAlpha" type="matrix" values="0 0 0 0 0 0 0 0 0 0 0 0 0 0 0 0 0 0 127 0" result="hardAlpha"/>
<feOffset/>
<feGaussianBlur stdDeviation="0.930769"/>
<feComposite in2="hardAlpha" operator="out"/>
<feColorMatrix type="matrix" values="0 0 0 0 0 0 0 0 0 0 0 0 0 0 0 0 0 0 0.15 0"/>
<feBlend mode="normal" in2="BackgroundImageFix" result="effect1_dropShadow_29_62"/>
<feBlend mode="normal" in="SourceGraphic" in2="effect1_dropShadow_29_62" result="shape"/>
</filter>
</defs>
</svg>
