<svg width="59" height="57" viewBox="0 0 59 57" fill="none" xmlns="http://www.w3.org/2000/svg">
<g filter="url(#filter0_d_38_1377)">
<path d="M34.2793 22.0654C34.6307 23.0048 35.5097 23.6437 36.5117 23.6875L50.1514 24.2832L39.4668 32.7822C38.6817 33.4067 38.3462 34.4405 38.6143 35.4072L42.2617 48.5635L30.877 41.0283L30.7168 40.9316C29.9051 40.4775 28.9014 40.5093 28.1172 41.0283L16.7314 48.5635L20.3799 35.4072C20.6479 34.4405 20.3124 33.4067 19.5273 32.7822L8.8418 24.2832L22.4824 23.6875C23.4845 23.6437 24.3634 23.0048 24.7148 22.0654L29.4971 9.27734L34.2793 22.0654Z" stroke="#FFB5A7" stroke-width="3" shape-rendering="crispEdges"/>
</g>
<defs>
<filter id="filter0_d_38_1377" x="0.583398" y="0.949365" width="57.8273" height="55.673" filterUnits="userSpaceOnUse" color-interpolation-filters="sRGB">
<feFlood flood-opacity="0" result="BackgroundImageFix"/>
<feColorMatrix in="SourceAlpha" type="matrix" values="0 0 0 0 0 0 0 0 0 0 0 0 0 0 0 0 0 0 127 0" result="hardAlpha"/>
<feOffset/>
<feGaussianBlur stdDeviation="2.95"/>
<feComposite in2="hardAlpha" operator="out"/>
<feColorMatrix type="matrix" values="0 0 0 0 0.9625 0 0 0 0 0.601562 0 0 0 0 0.601562 0 0 0 0.18 0"/>
<feBlend mode="normal" in2="BackgroundImageFix" result="effect1_dropShadow_38_1377"/>
<feBlend mode="normal" in="SourceGraphic" in2="effect1_dropShadow_38_1377" result="shape"/>
</filter>
</defs>
</svg>
