<svg width="56" height="56" viewBox="0 0 56 56" fill="none" xmlns="http://www.w3.org/2000/svg">
<g filter="url(#filter0_d_30_131)">
<rect x="6" y="6" width="44" height="44" rx="3.66667" fill="#FAFAFA"/>
<circle cx="27.9292" cy="25.2507" r="0.916667" fill="#90CFA8"/>
<circle cx="27.9292" cy="30.7507" r="0.916667" fill="#90CFA8"/>
<circle cx="27.9292" cy="36.2507" r="0.916667" fill="#90CFA8"/>
<circle cx="27.9292" cy="41.8912" r="0.916667" fill="#90CFA8"/>
<circle cx="27.9292" cy="19.6093" r="0.916667" fill="#90CFA8"/>
<circle cx="27.9292" cy="14.1093" r="0.916667" fill="#90CFA8"/>
<rect x="12.9105" y="13.334" width="1.83333" height="1.69231" rx="0.423077" fill="#90CFA8"/>
<rect x="13.051" y="18.834" width="1.83333" height="1.69231" fill="#90CFA8"/>
<rect x="12.9105" y="24.334" width="1.83333" height="1.69231" rx="0.423077" fill="#90CFA8"/>
<path d="M12.9105 36.3206C12.9105 35.8533 13.2894 35.4745 13.7567 35.4745H13.8272C14.3334 35.4745 14.7439 35.8849 14.7439 36.3912V37.1668H13.7567C13.2894 37.1668 12.9105 36.788 12.9105 36.3206V36.3206Z" fill="#90CFA8"/>
<path d="M42.949 36.3206C42.949 35.8533 42.5701 35.4745 42.1028 35.4745H42.0323C41.526 35.4745 41.1156 35.8849 41.1156 36.3912V37.1668H42.1028C42.5701 37.1668 42.949 36.788 42.949 36.3206V36.3206Z" fill="#90CFA8"/>
<path d="M12.9105 41.8206C12.9105 42.2879 13.2894 42.6667 13.7567 42.6667H13.8272C14.3334 42.6667 14.7439 42.2563 14.7439 41.7501V40.9744H13.7567C13.2894 40.9744 12.9105 41.3533 12.9105 41.8206V41.8206Z" fill="#90CFA8"/>
<path d="M42.949 41.8206C42.949 42.2879 42.5701 42.6667 42.1028 42.6667H42.0323C41.526 42.6667 41.1156 42.2563 41.1156 41.7501V40.9744H42.1028C42.5701 40.9744 42.949 41.3533 42.949 41.8206V41.8206Z" fill="#90CFA8"/>
<rect x="12.8395" y="29.7938" width="16.0773" height="1.97076" rx="0.985382" stroke="#427D58" stroke-width="0.423077"/>
<rect x="26.9464" y="29.7938" width="16.0773" height="1.97076" rx="0.985382" stroke="#427D58" stroke-width="0.423077"/>
<rect x="12.8395" y="35.3508" width="16.0773" height="1.97076" rx="0.985382" stroke="#427D58" stroke-width="0.423077"/>
<rect x="26.9464" y="35.3508" width="16.0773" height="1.97076" rx="0.985382" stroke="#427D58" stroke-width="0.423077"/>
<rect x="14.8103" y="35.3508" width="7.52789" height="1.97076" rx="0.985382" transform="rotate(90 14.8103 35.3508)" stroke="#427D58" stroke-width="0.423077"/>
<rect x="28.9172" y="35.3508" width="7.52789" height="1.97076" rx="0.985382" transform="rotate(90 28.9172 35.3508)" stroke="#427D58" stroke-width="0.423077"/>
<rect x="28.9172" y="35.3508" width="7.52789" height="1.97076" rx="0.985382" transform="rotate(90 28.9172 35.3508)" stroke="#427D58" stroke-width="0.423077"/>
<rect x="43.0233" y="35.3508" width="7.52789" height="1.97076" rx="0.985382" transform="rotate(90 43.0233 35.3508)" stroke="#427D58" stroke-width="0.423077"/>
<rect x="12.8395" y="40.9078" width="16.0773" height="1.97076" rx="0.985382" stroke="#427D58" stroke-width="0.423077"/>
<rect x="26.9464" y="40.9078" width="16.0773" height="1.97076" rx="0.985382" stroke="#427D58" stroke-width="0.423077"/>
<rect x="12.8395" y="13.1228" width="16.0773" height="1.97076" rx="0.985382" stroke="#427D58" stroke-width="0.423077"/>
<rect x="26.9464" y="13.1228" width="16.0773" height="1.97076" rx="0.985382" stroke="#427D58" stroke-width="0.423077"/>
<rect x="12.8395" y="18.6798" width="16.0773" height="1.97076" rx="0.985382" stroke="#427D58" stroke-width="0.423077"/>
<rect x="26.9464" y="18.6798" width="16.0773" height="1.97076" rx="0.985382" stroke="#427D58" stroke-width="0.423077"/>
<rect x="12.8395" y="24.2368" width="16.0773" height="1.97076" rx="0.985382" stroke="#427D58" stroke-width="0.423077"/>
<rect x="26.9464" y="24.2368" width="16.0773" height="1.97076" rx="0.985382" stroke="#427D58" stroke-width="0.423077"/>
<rect x="14.8103" y="13.1228" width="13.085" height="1.97076" rx="0.985382" transform="rotate(90 14.8103 13.1228)" stroke="#427D58" stroke-width="0.423077"/>
<rect x="28.9172" y="13.1228" width="13.085" height="1.97076" rx="0.985382" transform="rotate(90 28.9172 13.1228)" stroke="#427D58" stroke-width="0.423077"/>
</g>
<defs>
<filter id="filter0_d_30_131" x="0.4" y="0.4" width="55.2" height="55.2" filterUnits="userSpaceOnUse" color-interpolation-filters="sRGB">
<feFlood flood-opacity="0" result="BackgroundImageFix"/>
<feColorMatrix in="SourceAlpha" type="matrix" values="0 0 0 0 0 0 0 0 0 0 0 0 0 0 0 0 0 0 127 0" result="hardAlpha"/>
<feOffset/>
<feGaussianBlur stdDeviation="2.8"/>
<feComposite in2="hardAlpha" operator="out"/>
<feColorMatrix type="matrix" values="0 0 0 0 0.862179 0 0 0 0 1 0 0 0 0 0.914682 0 0 0 0.27 0"/>
<feBlend mode="normal" in2="BackgroundImageFix" result="effect1_dropShadow_30_131"/>
<feBlend mode="normal" in="SourceGraphic" in2="effect1_dropShadow_30_131" result="shape"/>
</filter>
</defs>
</svg>
