<svg width="81" height="84" viewBox="0 0 81 84" fill="none" xmlns="http://www.w3.org/2000/svg">
<path d="M35.2402 0.915161V7.53918H13.9667C12.7063 7.53918 11.8952 7.95478 11.4208 8.54114C10.9685 9.10034 10.8654 9.7637 10.9091 10.2257V15.0558C10.9094 15.2666 11.0802 15.4375 11.291 15.4376H35.2402V22.1886H11.291C11.08 22.1887 10.9091 22.3604 10.9091 22.5714V27.6661C10.9091 28.3445 11.0986 28.8573 11.4453 29.2189C11.7854 29.5736 12.2328 29.7366 12.6591 29.8107C13.085 29.8846 13.5262 29.8757 13.8896 29.8575C14.0955 29.8472 14.22 29.8378 14.3818 29.8302C14.5276 29.8233 14.626 29.8233 14.6884 29.8302C14.7023 29.8317 14.7164 29.8321 14.7304 29.8322H35.2402V36.2013H11.291C8.62654 36.2012 6.94529 34.9993 5.90521 33.4991C4.91827 32.0756 4.50496 30.3745 4.42377 29.1632L4.41205 28.9279V7.922C4.41205 5.24847 5.55923 3.54322 6.98236 2.47961C8.33232 1.47081 9.94396 1.03164 11.0888 0.930786L11.3115 0.915161H35.2402Z" fill="#FAFAFA" stroke="#427D58" stroke-width="0.764372" stroke-linejoin="round"/>
<rect x="0.84526" y="39.3893" width="37.9609" height="5.85969" fill="#FAFAFA" stroke="#427D58" stroke-width="0.764372" stroke-linejoin="round"/>
<path d="M76.5172 0.915161V7.53918H55.2438C53.9833 7.53918 53.1722 7.95478 52.6979 8.54114C52.2455 9.10034 52.1424 9.7637 52.1862 10.2257V15.0558C52.1864 15.2666 52.3572 15.4375 52.568 15.4376H76.5172V22.1886H52.568C52.357 22.1887 52.1862 22.3604 52.1862 22.5714V27.6661C52.1862 28.3445 52.3756 28.8573 52.7223 29.2189C53.0624 29.5736 53.5098 29.7366 53.9362 29.8107C54.362 29.8846 54.8032 29.8757 55.1666 29.8575C55.3726 29.8472 55.4971 29.8378 55.6588 29.8302C55.8047 29.8233 55.903 29.8233 55.9655 29.8302C55.9794 29.8317 55.9934 29.8321 56.0074 29.8322H76.5172V36.2013H52.568C49.9036 36.2012 48.2223 34.9993 47.1823 33.4991C46.1953 32.0756 45.782 30.3745 45.7008 29.1632L45.6891 28.9279V7.922C45.6891 5.24847 46.8363 3.54322 48.2594 2.47961C49.6094 1.47081 51.221 1.03164 52.3658 0.930786L52.5885 0.915161H76.5172Z" fill="#FAFAFA" stroke="#427D58" stroke-width="0.764372" stroke-linejoin="round"/>
<path d="M28.3621 47.7972C31.0263 47.7974 32.7077 48.9994 33.7478 50.4994C34.7349 51.9231 35.1481 53.6249 35.2293 54.8363L35.241 55.0717V76.0785C35.2409 78.752 34.0938 80.4573 32.6707 81.5209C31.2364 82.5926 29.5066 83.0211 28.3553 83.0844H11.2918C8.62737 83.0844 6.94523 81.8832 5.90506 80.3832C4.91803 78.9596 4.5048 77.2576 4.42361 76.0463L4.4119 75.8109V54.8041C4.4119 52.1304 5.55902 50.4253 6.98221 49.3617C8.33212 48.3529 9.94377 47.9138 11.0887 47.8129L11.3113 47.7972H28.3621ZM69.6365 47.7972C72.3009 47.7974 73.9831 48.9993 75.0232 50.4994C76.0102 51.9231 76.4226 53.625 76.5037 54.8363L76.5154 55.0717V76.0785C76.5153 78.7519 75.3691 80.4573 73.9461 81.5209C72.5117 82.5929 70.7811 83.0211 69.6297 83.0844H52.5662C49.9018 83.0844 48.2196 81.8832 47.1795 80.3832C46.1924 78.9596 45.7792 77.2576 45.698 76.0463L45.6863 75.8109V54.8041C45.6863 52.1304 46.8334 50.4253 48.2566 49.3617C49.6065 48.3529 51.2182 47.9138 52.3631 47.8129L52.5857 47.7972H69.6365ZM13.9666 54.4222C12.7061 54.4222 11.895 54.8369 11.4207 55.4232C10.9719 55.978 10.8679 56.6355 10.909 57.097V76.0785C10.909 76.1797 10.9497 76.2764 11.0213 76.348C11.0929 76.4197 11.1904 76.4603 11.2918 76.4603H25.6863C26.9468 76.4603 27.7579 76.0448 28.2322 75.4584C28.6807 74.9038 28.7849 74.2469 28.7439 73.7855V54.8041C28.7439 54.5932 28.573 54.4225 28.3621 54.4222H13.9666ZM55.241 54.4222C53.9805 54.4222 53.1694 54.8368 52.6951 55.4232C52.2463 55.978 52.1423 56.6355 52.1834 57.097V76.0785C52.1834 76.1797 52.2242 76.2764 52.2957 76.348C52.3674 76.4197 52.4648 76.4603 52.5662 76.4603H66.9607C68.2212 76.4603 69.0323 76.0448 69.5066 75.4584C69.9592 74.8987 70.0624 74.2348 70.0183 73.7728V54.8041C70.0183 54.5931 69.8474 54.4225 69.6365 54.4222H55.241ZM13.9666 55.1859H27.9793V73.7855C27.9793 73.7995 27.9807 73.8136 27.9822 73.8275C28.0157 74.1289 27.9477 74.5944 27.6375 74.9779C27.339 75.3469 26.7697 75.6957 25.6863 75.6957H11.6736V57.097C11.6736 57.083 11.6722 57.069 11.6707 57.0551C11.6372 56.7537 11.7052 56.2882 12.0154 55.9047C12.3139 55.5356 12.8831 55.1859 13.9666 55.1859ZM55.241 55.1859H69.2537V73.7855C69.2537 73.7995 69.2551 73.8136 69.2566 73.8275C69.2901 74.1289 69.2221 74.5944 68.9119 74.9779C68.6134 75.3469 68.0441 75.6957 66.9607 75.6957H52.948V57.097C52.948 57.083 52.9476 57.069 52.9461 57.0551C52.9126 56.7538 52.9797 56.2882 53.2898 55.9047C53.5883 55.5356 54.1575 55.1859 55.241 55.1859Z" fill="#FAFAFA" stroke="#427D58" stroke-width="0.764372" stroke-linecap="round" stroke-linejoin="round"/>
<rect x="42.1204" y="39.3894" width="37.9609" height="5.85969" fill="#FAFAFA" stroke="#427D58" stroke-width="0.764372" stroke-linejoin="round"/>
<path d="M11.6747 56.8413C11.6747 55.8563 12.4732 55.0577 13.4582 55.0577H27.98V73.9107C27.98 74.8957 27.1815 75.6942 26.1965 75.6942H11.6747V56.8413Z" fill="#427D58"/>
<path d="M52.95 56.8413C52.95 55.8563 53.7485 55.0577 54.7335 55.0577H69.2554V73.9107C69.2554 74.8957 68.4568 75.6942 67.4718 75.6942H52.95V56.8413Z" fill="#427D58"/>
</svg>
