<svg width="43" height="44" viewBox="0 0 43 44" fill="none" xmlns="http://www.w3.org/2000/svg">
<path d="M18.6156 0.203125V3.7168H7.32846C6.65982 3.71684 6.2295 3.93794 5.97787 4.24902C5.76341 4.51436 5.6966 4.82381 5.70151 5.06152L5.70639 5.13672V7.70508C5.70657 7.81691 5.79764 7.90723 5.90952 7.90723H18.6156V11.4893H5.90952C5.79753 11.4893 5.70639 11.5804 5.70639 11.6924V14.3955C5.70639 14.7554 5.80761 15.0279 5.99155 15.2197C6.17194 15.4076 6.40906 15.494 6.6351 15.5332C6.86112 15.5724 7.09557 15.5682 7.28842 15.5586C7.39749 15.5531 7.46343 15.548 7.54916 15.5439C7.62652 15.5403 7.67913 15.5393 7.71225 15.543C7.7194 15.5437 7.72654 15.5449 7.73373 15.5449H18.6156V18.9238H5.90952C4.49581 18.9238 3.60296 18.2862 3.05112 17.4902C2.56245 16.7852 2.33925 15.9517 2.2767 15.3213L2.2601 15.0645V3.91992C2.26011 2.50148 2.86834 1.59652 3.62338 1.03223C4.38294 0.464726 5.29872 0.237304 5.90952 0.203125H18.6156Z" fill="#427D58" stroke="#427D58" stroke-width="0.405534" stroke-linejoin="round"/>
<rect x="0.367318" y="20.6149" width="20.1405" height="3.10892" fill="#427D58" stroke="#427D58" stroke-width="0.405534" stroke-linejoin="round"/>
<path d="M40.5145 0.203125V3.7168H29.2274C28.5588 3.71684 28.1284 3.93794 27.8768 4.24902C27.6624 4.51436 27.5955 4.82381 27.6004 5.06152L27.6053 5.13672V7.70508C27.6055 7.81691 27.6966 7.90723 27.8085 7.90723H40.5145V11.4893H27.8085C27.6965 11.4893 27.6053 11.5804 27.6053 11.6924V14.3955C27.6053 14.7554 27.7066 15.0279 27.8905 15.2197C28.0709 15.4076 28.308 15.494 28.534 15.5332C28.7601 15.5724 28.9945 15.5682 29.1874 15.5586C29.2964 15.5531 29.3624 15.548 29.4481 15.5439C29.5255 15.5403 29.5781 15.5393 29.6112 15.543C29.6183 15.5437 29.6255 15.5449 29.6327 15.5449H40.5145V18.9238H27.8085C26.3948 18.9238 25.5019 18.2862 24.9501 17.4902C24.4614 16.7852 24.2382 15.9517 24.1756 15.3213L24.159 15.0645V3.91992C24.1591 2.50148 24.7673 1.59652 25.5223 1.03223C26.2819 0.464726 27.1977 0.237304 27.8085 0.203125H40.5145Z" fill="#427D58" stroke="#427D58" stroke-width="0.405534" stroke-linejoin="round"/>
<path d="M14.9662 25.0762C16.3796 25.0762 17.2718 25.7131 17.8237 26.5088C18.3821 27.3143 18.594 28.288 18.6157 28.9346V40.0801C18.6156 41.4985 18.0074 42.4035 17.2524 42.9678C16.4929 43.5353 15.5771 43.7626 14.9662 43.7969H5.90961C4.49589 43.7969 3.60305 43.1592 3.05121 42.3633C2.56281 41.6586 2.33945 40.8256 2.27679 40.1953L2.26019 39.9385V28.793C2.26022 27.3745 2.86843 26.4696 3.62347 25.9053C4.38302 25.3378 5.2988 25.1104 5.90961 25.0762H14.9662ZM36.8637 25.0762C38.2773 25.0762 39.1702 25.713 39.7221 26.5088C40.2108 27.2136 40.4339 28.0473 40.4965 28.6777L40.5141 28.9346V40.0801C40.5141 41.4985 39.9058 42.4035 39.1508 42.9678C38.3911 43.5356 37.4746 43.7627 36.8637 43.7969H27.8071C26.3936 43.7968 25.5014 43.1591 24.9496 42.3633C24.4612 41.6586 24.2379 40.8257 24.1752 40.1953L24.1577 39.9385V28.793C24.1577 27.3745 24.7659 26.4696 25.5209 25.9053C26.2803 25.3378 27.1962 25.1105 27.8071 25.0762H36.8637ZM7.32855 28.5898C6.65994 28.5899 6.22959 28.811 5.97797 29.1221C5.76351 29.3874 5.69671 29.6969 5.7016 29.9346L5.70648 30.0098V40.0801C5.70651 40.1338 5.72805 40.1856 5.76605 40.2236C5.80407 40.2616 5.85588 40.2832 5.90961 40.2832H13.5463C14.2151 40.2832 14.6453 40.0621 14.8969 39.751C15.1379 39.453 15.1923 39.0997 15.1684 38.8545V28.793C15.1683 28.6811 15.0781 28.5899 14.9662 28.5898H7.32855ZM29.227 28.5898C28.5582 28.5898 28.1281 28.811 27.8764 29.1221C27.6618 29.3874 27.5951 29.6968 27.6 29.9346L27.6049 30.0098V40.0801C27.6049 40.1338 27.6265 40.1856 27.6645 40.2236C27.7024 40.2614 27.7536 40.2831 27.8071 40.2832H35.4448C36.1135 40.2832 36.5437 40.0621 36.7953 39.751C37.0333 39.4566 37.0886 39.1081 37.0668 38.8633V28.793C37.0668 28.681 36.9757 28.5898 36.8637 28.5898H29.227ZM7.32855 28.9961H14.7631V38.8633C14.7631 38.8707 14.7633 38.8783 14.7641 38.8857C14.7819 39.0455 14.7468 39.2927 14.5825 39.4961C14.4241 39.6919 14.1212 39.877 13.5463 39.877H6.11273V30.0098C6.11273 30.0023 6.1116 29.9947 6.11078 29.9873C6.09302 29.8275 6.12892 29.5804 6.2934 29.377C6.45174 29.1812 6.75389 28.9961 7.32855 28.9961ZM29.227 28.9961H36.6616V38.8633C36.6616 38.8707 36.6617 38.8783 36.6625 38.8857C36.6803 39.0456 36.6445 39.2926 36.4799 39.4961C36.3216 39.6919 36.0196 39.8769 35.4448 39.877H28.0102V30.0098C28.0102 30.0023 28.01 29.9947 28.0092 29.9873C27.9915 29.8274 28.0272 29.5804 28.1918 29.377C28.3502 29.1812 28.6522 28.9961 29.227 28.9961Z" fill="#427D58" stroke="#427D58" stroke-width="0.405534" stroke-linecap="round" stroke-linejoin="round"/>
<rect x="22.266" y="20.6149" width="20.1405" height="3.10892" fill="#427D58" stroke="#427D58" stroke-width="0.405534" stroke-linejoin="round"/>
<path d="M6.11232 29.8745C6.11232 29.3519 6.53597 28.9282 7.05857 28.9282H14.7633V38.9308C14.7633 39.4534 14.3396 39.8771 13.817 39.8771H6.11232V29.8745Z" fill="white"/>
<path d="M28.0114 29.8745C28.0114 29.3519 28.435 28.9282 28.9576 28.9282H36.6623V38.9308C36.6623 39.4534 36.2387 39.8771 35.7161 39.8771H28.0114V29.8745Z" fill="white"/>
</svg>
